<?xml version="1.0" encoding="utf-8"?><svg enable-background="new 0 0 512 512" version="1.1" viewBox="0 0 512 512" xml:space="preserve" xmlns="http://www.w3.org/2000/svg"><path d="m506.53 243.71-96.224-80c-4.8-4-11.456-4.832-17.056-2.208-5.632 2.656-9.248 8.288-9.248 14.496v48h-96v-96h48c6.208 0 11.84-3.616 14.496-9.248 2.624-5.632 1.792-12.288-2.208-17.056l-80-96.224c-6.08-7.296-18.496-7.296-24.608 0l-80 96.224c-3.968 4.8-4.832 11.456-2.176 17.056 2.624 5.632 8.288 9.248 14.496 9.248h48v96h-96v-48c0-6.208-3.616-11.84-9.248-14.496-5.6-2.624-12.256-1.792-17.056 2.208l-96.224 80c-7.296 6.08-7.296 18.496 0 24.608l96.224 80c4.8 3.968 11.456 4.832 17.056 2.176 5.664-2.624 9.248-8.288 9.248-14.496v-48h96v96h-48c-6.208 0-11.872 3.616-14.496 9.248-2.656 5.632-1.792 12.288 2.176 17.056l80 96.224c6.08 7.296 18.496 7.296 24.608 0l80-96.224c4-4.8 4.832-11.456 2.208-17.056-2.656-5.632-8.288-9.248-14.496-9.248h-48v-96h96v48c0 6.208 3.616 11.872 9.248 14.496 5.632 2.656 12.288 1.792 17.056-2.176l96.224-80c7.296-6.112 7.296-18.528 0-24.608z"/></svg>
