<?xml version="1.0" encoding="utf-8"?><!DOCTYPE svg  PUBLIC '-//W3C//DTD SVG 1.1//EN'  'http://www.w3.org/Graphics/SVG/1.1/DTD/svg11.dtd'><svg enable-background="new 0 0 48.4 48.4" version="1.1" viewBox="0 0 48.4 48.4" xml:space="preserve" xmlns="http://www.w3.org/2000/svg">	<path d="m48.4 24.2c0-1.8-1.297-3.719-2.896-4.285s-3.149-1.952-3.6-3.045-0.334-3.173 0.396-4.705c0.729-1.532 0.287-3.807-0.986-5.08-1.272-1.273-3.547-1.714-5.08-0.985-1.532 0.729-3.609 0.848-4.699 0.397s-2.477-2.003-3.045-3.602c-0.569-1.599-2.49-2.895-4.29-2.895s-3.721 1.296-4.29 2.895-1.955 3.151-3.045 3.602-3.168 0.332-4.7-0.397-3.807-0.288-5.08 0.985-1.714 3.547-0.985 5.08 0.845 3.611 0.392 4.703-1.998 2.481-3.597 3.047-2.895 2.485-2.895 4.285 1.296 3.721 2.895 4.29c1.599 0.568 3.146 1.957 3.599 3.047 0.453 1.089 0.335 3.166-0.394 4.698s-0.288 3.807 0.985 5.08c1.273 1.272 3.547 1.714 5.08 0.985s3.61-0.847 4.7-0.395c1.091 0.452 2.476 2.008 3.045 3.604s2.49 2.891 4.29 2.891 3.721-1.295 4.29-2.891c0.568-1.596 1.953-3.15 3.043-3.604 1.09-0.453 3.17-0.334 4.701 0.396 1.533 0.729 3.808 0.287 5.08-0.985 1.273-1.273 1.715-3.548 0.986-5.08-0.729-1.533-0.849-3.61-0.398-4.7s2.004-2.477 3.603-3.045c1.599-0.57 2.895-2.491 2.895-4.291zm-24.2 8.88c-4.91 0-8.88-3.97-8.88-8.87 0-4.91 3.97-8.88 8.88-8.88 4.899 0 8.87 3.97 8.87 8.88 0 4.9-3.97 8.87-8.87 8.87z"/></svg>
